<?xml version="1.0" encoding="UTF-8"?><svg id="b" xmlns="http://www.w3.org/2000/svg" viewBox="0 0 100 100"><defs><style>.f{fill:#4d4d4d;}.g{fill:gray;}.h{fill:#f2f2f2;}</style></defs><g><circle class="g" cx="50" cy="50" r="37"/><path class="f" d="M50,13.5c20.13,0,36.5,16.37,36.5,36.5s-16.37,36.5-36.5,36.5S13.5,70.13,13.5,50,29.87,13.5,50,13.5m0-1C29.29,12.5,12.5,29.29,12.5,50s16.79,37.5,37.5,37.5,37.5-16.79,37.5-37.5S70.71,12.5,50,12.5h0Z"/></g><polygon class="h" points="50 65.65 34.55 73.78 37.5 56.57 25 44.39 42.27 41.88 50 26.22 57.73 41.88 75 44.39 62.5 56.57 65.45 73.78 50 65.65"/></svg>