<?xml version="1.0" encoding="UTF-8"?><svg id="b" xmlns="http://www.w3.org/2000/svg" viewBox="0 0 100 100"><defs><style>.f{fill:none;stroke:#000;stroke-linecap:round;stroke-miterlimit:10;stroke-width:5px;}.g{fill:#f2f2f2;}</style></defs><g><circle class="g" cx="50" cy="50" r="48"/><path d="M50,4c25.36,0,46,20.64,46,46s-20.64,46-46,46S4,75.36,4,50,24.64,4,50,4m0-4C22.39,0,0,22.39,0,50s22.39,50,50,50,50-22.39,50-50S77.61,0,50,0h0Z"/></g><circle cx="32.38" cy="36.5" r="7.5"/><circle cx="67.62" cy="37" r="7.5"/><path class="f" d="M30,71.25c.4,0,8.95-10,20-10s20.4,10,20,10"/></svg>