<?xml version="1.0" encoding="UTF-8"?><svg id="c" xmlns="http://www.w3.org/2000/svg" viewBox="0 0 100 100"><defs><style>.f{fill:#fff;}.g{fill:#ff8d4c;stroke:#804726;stroke-miterlimit:10;}</style></defs><circle class="g" cx="50" cy="50" r="50"/><g id="d"><path class="f" d="M32.5,37.5h5v47.5c0,1.38-1.12,2.5-2.5,2.5h0c-1.38,0-2.5-1.12-2.5-2.5V37.5h0Z"/><path class="f" d="M47.5,15v23.5c0,2.2-1.8,4-4,4H26.5c-2.2,0-4-1.8-4-4V15c0-1.38,1.12-2.5,2.5-2.5h0c1.38,0,2.5,1.12,2.5,2.5v15c0,1.38,1.12,2.5,2.5,2.5h0c1.38,0,2.5-1.12,2.5-2.5V15c0-1.38,1.12-2.5,2.5-2.5h0c1.38,0,2.5,1.12,2.5,2.5v15c0,1.38,1.12,2.5,2.5,2.5h0c1.38,0,2.5-1.12,2.5-2.5V15c0-1.38,1.12-2.5,2.5-2.5h0c1.38,0,2.5,1.12,2.5,2.5Z"/><path class="f" d="M62.5,12.5h5V85c0,1.38-1.12,2.5-2.5,2.5h0c-1.38,0-2.5-1.12-2.5-2.5V12.5h0Z"/><rect class="f" x="57.5" y="12.5" width="10" height="40" rx="4" ry="4"/></g></svg>